<svg width="28" height="28" viewBox="0 0 28 28" fill="none" xmlns="http://www.w3.org/2000/svg">
<path d="M20.4166 13.4166H8.99143L14.4124 7.99575C14.6425 7.77031 14.6462 7.40102 14.4207 7.17095C14.1952 6.94088 13.8259 6.93711 13.5959 7.16262C13.5931 7.16533 13.5903 7.1681 13.5875 7.17095L7.17087 13.5876C6.943 13.8152 6.94265 14.1842 7.17023 14.4121C7.16987 14.4121 7.17037 14.4123 7.17023 14.4121L13.5875 20.8291C13.8176 21.0545 14.1869 21.0508 14.4123 20.8208C14.6346 20.594 14.6346 20.231 14.4123 20.0042L8.99143 14.5833H20.4166C20.7388 14.5833 21 14.3221 21 14C21 13.6778 20.7388 13.4166 20.4166 13.4166Z" fill="#021626"/>
</svg>
