<svg width="48" height="48" viewBox="0 0 48 48" fill="none" xmlns="http://www.w3.org/2000/svg">
<path d="M30.2457 29.4209L24.8247 24L30.2457 18.579C30.4641 18.353 30.4641 17.9946 30.2457 17.7685C30.0219 17.5368 29.6526 17.5304 29.4209 17.7542L23.9999 23.1752L18.579 17.7543C18.353 17.536 17.9946 17.536 17.7685 17.7543C17.5368 17.9781 17.5304 18.3474 17.7542 18.5791L23.1751 24L17.7542 29.4209C17.6448 29.5302 17.5834 29.6786 17.5834 29.8332C17.5833 30.1554 17.8445 30.4166 18.1666 30.4166C18.3214 30.4168 18.4698 30.3553 18.579 30.2457L23.9999 24.8248L29.4209 30.2457C29.5301 30.3553 29.6786 30.4169 29.8333 30.4166C29.9879 30.4166 30.1362 30.3552 30.2455 30.2459C30.4734 30.0181 30.4735 29.6487 30.2457 29.4209Z" fill="#021626"/>
</svg>
